<svg width="12" height="12" viewBox="0 0 12 12" fill="none" xmlns="http://www.w3.org/2000/svg">
<g clip-path="url(#clip0)">
<path d="M11.864 3.01701C11.824 2.96909 11.774 2.93049 11.7175 2.90389C11.661 2.87729 11.5994 2.86334 11.537 2.86301H9.22499V4.09001C9.22499 4.65301 8.74099 5.11201 8.14499 5.11201C7.55099 5.11201 7.06699 4.65401 7.06699 4.09001V2.86301H4.90899V4.09001C4.90899 4.65301 4.42399 5.11201 3.82899 5.11201C3.23399 5.11201 2.75099 4.65401 2.75099 4.09001V2.86301H0.437988C0.375572 2.8634 0.31399 2.87739 0.257521 2.90398C0.201052 2.93057 0.15105 2.96914 0.110988 3.01701C0.0695497 3.06618 0.0385951 3.12329 0.0200235 3.18486C0.00145178 3.24642 -0.0043453 3.31112 0.00298791 3.37501L0.778988 10.509C0.793988 11.315 1.42099 11.964 2.18999 11.964H9.78499C10.555 11.964 11.181 11.315 11.196 10.509L11.972 3.37501C11.9791 3.31113 11.9732 3.24648 11.9546 3.18496C11.9361 3.12343 11.9052 3.0663 11.864 3.01701V3.01701Z" fill="#FFC600"/>
<path d="M3.82901 4.499C4.06801 4.499 4.26201 4.315 4.26201 4.09V1.84C4.26201 1.208 4.93401 0.818 5.55701 0.818H6.63601C7.29101 0.818 7.71401 1.219 7.71401 1.84V4.09C7.71401 4.315 7.90801 4.499 8.14501 4.499C8.38401 4.499 8.57801 4.315 8.57801 4.09V1.84C8.57701 0.773 7.76101 0 6.63601 0H5.55701C4.36701 0 3.39801 0.826 3.39801 1.84V4.09C3.39801 4.315 3.59201 4.499 3.82901 4.499V4.499Z" fill="#FFC600"/>
</g>
<defs>
<clipPath id="clip0">
<rect width="12" height="12" fill="white"/>
</clipPath>
</defs>
</svg>
