<svg width="13" height="12" viewBox="0 0 13 12" fill="none" xmlns="http://www.w3.org/2000/svg">
<g clip-path="url(#clip0)">
<path d="M0.0320129 12H12.969C12.806 9.357 10.895 7.163 8.29801 6.457C8.81176 6.14929 9.23713 5.71387 9.53274 5.19308C9.82836 4.67228 9.98417 4.08385 9.98501 3.485C9.98501 2.56072 9.61784 1.6743 8.96428 1.02073C8.31072 0.367169 7.42429 0 6.50001 0C5.57573 0 4.68931 0.367169 4.03575 1.02073C3.38218 1.6743 3.01501 2.56072 3.01501 3.485C3.01501 4.749 3.69501 5.846 4.70301 6.457C2.10601 7.163 0.194013 9.357 0.0320129 12Z" fill="#FFC600"/>
</g>
<defs>
<clipPath id="clip0">
<rect width="13" height="12" fill="white"/>
</clipPath>
</defs>
</svg>
